<?xml version="1.0" encoding="UTF-8"?>
<svg id="Layer_1" xmlns="http://www.w3.org/2000/svg" viewBox="0 0 1662.51 300">
  <defs>
    <style>
      .cls-1 {
        fill: #df4425;
      }

      .cls-2 {
        fill: #231232;
      }
    </style>
  </defs>
  <g>
    <path class="cls-2" d="M372.59,150.29c0-45.41,31.79-76.61,77.2-76.61s76.03,30.35,76.03,76.34v70.27h-31.52v-28.05c-8.68,21.09-28.05,31.79-50.59,31.79-34.71,0-71.13-24.86-71.13-73.73ZM491.42,148.85c0-25.14-16.77-43.07-41.91-43.07s-42.22,17.94-42.22,43.07,17.04,43.07,42.22,43.07,41.91-17.94,41.91-43.07Z"/>
    <path class="cls-2" d="M543.48,150.02c0-46.26,31.21-76.34,76.03-76.34s77.2,31.21,77.2,76.61c0,48.87-36.42,73.73-71.13,73.73-20.54,0-37.59-8.68-47.7-24.59v81.83h-34.4v-131.25ZM662.03,148.85c0-25.14-17.04-43.07-42.22-43.07s-41.91,17.94-41.91,43.07,16.77,43.07,41.91,43.07,42.22-17.94,42.22-43.07Z"/>
    <path class="cls-2" d="M707.54,150.02c0-46.26,31.21-76.34,76.03-76.34s77.2,31.21,77.2,76.61c0,48.87-36.42,73.73-71.13,73.73-20.54,0-37.59-8.68-47.7-24.59v81.83h-34.4v-131.25ZM826.07,148.85c0-25.14-17.04-43.07-42.22-43.07s-41.91,17.94-41.91,43.07,16.77,43.07,41.91,43.07,42.22-17.94,42.22-43.07Z"/>
    <path class="cls-2" d="M875.9,15h34.4v205.29h-34.4V15Z"/>
    <path class="cls-2" d="M966.78,235.86c5.8,13.31,17.04,19.38,34.4,19.38,23.42,0,36.73-11.28,36.73-39.03v-17.94c-8.68,15.6-23.7,24.01-42.49,24.01-32.96,0-64.2-21.4-64.2-72.29v-72.57h34.4v72.57c0,27.16,14.44,40.19,36.15,40.19s36.15-13.58,36.15-40.19v-72.57h34.4v137.9c0,49.73-31.52,69.69-71.13,69.69-33.23,0-60.7-15.33-68.83-49.14h34.43Z"/>
    <path class="cls-2" d="M1092.98,150.02c0-46.26,31.21-76.34,76.03-76.34s77.2,31.21,77.2,76.61c0,48.87-36.42,73.73-71.13,73.73-20.54,0-37.59-8.68-47.7-24.59v81.83h-34.4v-131.25ZM1211.54,148.85c0-25.14-17.04-43.07-42.22-43.07s-41.91,17.94-41.91,43.07,16.77,43.07,41.91,43.07,42.22-17.94,42.22-43.07Z"/>
    <path class="cls-2" d="M1252.38,150.29c0-45.41,31.79-76.61,77.2-76.61s76.03,30.35,76.03,76.34v70.27h-31.52v-28.05c-8.67,21.09-28.05,31.79-50.58,31.79-34.71,0-71.13-24.86-71.13-73.73ZM1371.21,148.85c0-25.14-16.77-43.07-41.91-43.07s-42.22,17.94-42.22,43.07,17.04,43.07,42.22,43.07,41.91-17.94,41.91-43.07Z"/>
    <path class="cls-2" d="M1416.38,178.03h34.71c.27,9.53,8.68,15.91,25.45,15.91,17.63,0,25.14-7.24,25.14-15.91,0-10.97-12.72-12.41-28.05-14.47-21.98-2.88-54.36-6.65-54.36-41.63,0-29.18,22.26-48.29,56.65-48.29s56.38,19.65,57.24,44.82h-34.12c-.86-8.68-8.95-14.75-22.57-14.75-15.02,0-22.57,7.24-22.57,15.6,0,10.97,13,12.72,28.33,14.75,19.07,2.61,54.05,6.34,54.05,41.91,0,28.91-23.42,47.98-59.84,47.98s-59.26-19.38-60.12-45.95l.07.03Z"/>
    <path class="cls-2" d="M1542.62,178.03h34.71c.27,9.53,8.68,15.91,25.45,15.91,17.63,0,25.14-7.24,25.14-15.91,0-10.97-12.72-12.41-28.05-14.47-21.98-2.88-54.36-6.65-54.36-41.63,0-29.18,22.26-48.29,56.65-48.29s56.38,19.65,57.24,44.82h-34.12c-.86-8.68-8.95-14.75-22.57-14.75-15.02,0-22.57,7.24-22.57,15.6,0,10.97,13,12.72,28.33,14.75,19.07,2.61,54.05,6.34,54.05,41.91,0,28.91-23.42,47.98-59.84,47.98s-59.26-19.38-60.12-45.95l.07.03Z"/>
  </g>
  <path class="cls-1" d="M278.77,77.47c-13.7-9.71-29.82-14.79-46.71-14.79h-17.65c-2.92,0-5.3-2.36-5.3-5.26V4.46c0-2.45-2.02-4.46-4.54-4.46-.22,0-.45,0-.67.04-17.38,2.41-34.63,6.46-51.25,11.98-30.14,10.07-58.21,24.99-83.49,44.42-12.4,9.53-24.07,20.14-34.76,31.54-11.14,11.94-22.55,24.81-28.52,39.47-3.91,9.53-5.88,19.65-5.88,30.03,0,25.75,12.62,50.07,33.82,65.04,13.65,9.67,29.82,14.79,46.66,14.79h17.7c2.87,0,5.25,2.36,5.25,5.26v52.97c0,2.45,2.07,4.45,4.58,4.45.22,0,.45-.04.67-.04,28.74-4.01,56.59-12.3,82.73-24.68,28.56-13.5,54.52-31.5,77.2-53.55,21.74-21.16,43.97-47.09,43.97-79.21,0-25.75-12.67-50.07-33.82-65.04ZM245.09,148.53c-19.76,23.88-43.74,43.13-71.23,57.34-10.96,5.66-22.41,10.43-34.13,14.21-.9.31-1.84.44-2.78.44-4.94,0-8.98-4.01-8.98-8.95v-36.58c0-4.94-4.04-8.91-8.98-8.91h-44.55c-3.5,0-6.65-1.96-8.13-5.12-1.53-3.16-1.03-6.82,1.21-9.53,19.72-23.83,43.7-43.12,71.23-57.29,10.91-5.66,22.41-10.47,34.13-14.26.9-.27,1.8-.45,2.74-.45,4.94,0,8.98,4.01,8.98,8.95v36.62c0,4.9,4.04,8.91,8.98,8.91h44.6c3.5,0,6.6,1.96,8.08,5.08,1.53,3.16,1.08,6.82-1.17,9.53Z"/>
</svg>